<?xml version="1.0" encoding="UTF-8"?>
<svg id="Layer_2" data-name="Layer 2" xmlns="http://www.w3.org/2000/svg" viewBox="0 0 3000 3000">
  <defs>
    <style>
      .cls-1 {
        fill: #ff9dad;
      }

      .cls-2 {
        fill: #fff;
      }
    </style>
  </defs>
  <g id="Layer_1-2" data-name="Layer 1">
    <circle class="cls-1" cx="1500" cy="1500" r="1500"/>
    <g>
      <g id="Layer_1-2" data-name="Layer 1-2">
        <path class="cls-2" d="m738.67,652.79v1694.56c0,50.91,28.88,96.22,73.71,125.29,32.25,20.81,72.82,33.2,116.77,33.2h1144.11c105.07,0,190.3-70.98,190.3-158.49V652.94c0-87.51-85.23-158.49-190.3-158.49H929.15c-43.94,0-84.34,12.4-116.59,33.2-45.01,28.78-73.89,74.23-73.89,125.14Z"/>
      </g>
      <rect class="cls-1" x="989.9" y="1677.47" width="1022.43" height="129.27" rx="64.63" ry="64.63"/>
      <rect class="cls-1" x="989.9" y="2125.35" width="1022.43" height="129.27" rx="64.63" ry="64.63"/>
      <rect class="cls-1" x="989.9" y="1901.41" width="1022.43" height="129.27" rx="64.63" ry="64.63"/>
      <g>
        <path class="cls-1" d="m1339.54,1161.58l137.01,41.41c-9.21,38.43-23.7,70.52-43.48,96.29-19.79,25.77-44.35,45.21-73.68,58.32-29.33,13.11-66.67,19.67-111.99,19.67-54.99,0-99.91-7.99-134.77-23.97-34.86-15.98-64.94-44.08-90.25-84.32-25.31-40.24-37.96-91.74-37.96-154.51,0-83.69,22.26-148.01,66.78-192.96s107.5-67.43,188.95-67.43c63.73,0,113.83,12.89,150.3,38.65,36.46,25.77,63.55,65.35,81.27,118.72l-138.05,30.72c-4.83-15.41-9.9-26.69-15.19-33.82-8.75-11.96-19.44-21.17-32.1-27.61-12.66-6.44-26.81-9.66-42.45-9.66-35.43,0-62.58,14.25-81.45,42.75-14.27,21.14-21.4,54.35-21.4,99.61,0,56.08,8.51,94.51,25.54,115.31,17.02,20.8,40.95,31.2,71.78,31.2s52.51-8.4,67.82-25.19c15.3-16.79,26.4-41.18,33.3-73.16Z"/>
        <path class="cls-1" d="m1502.78,862.71h163.43l113.87,364.1,112.42-364.1h158.67l-187.86,505.94h-169.45l-191.08-505.94Z"/>
      </g>
    </g>
  </g>
</svg>